<?xml version="1.0" standalone="no"?>
<!DOCTYPE svg PUBLIC "-//W3C//DTD SVG 20010904//EN"
 "http://www.w3.org/TR/2001/REC-SVG-20010904/DTD/svg10.dtd">
<svg version="1.0" xmlns="http://www.w3.org/2000/svg"
 width="274.000000pt" height="16.000000pt" viewBox="0 0 274.000000 16.000000"
 preserveAspectRatio="xMidYMid meet">
<metadata>
Created by potrace 1.16, written by Peter Selinger 2001-2019
</metadata>
<g transform="translate(0.000000,16.000000) scale(0.100000,-0.100000)"
fill="#6E4CC9" stroke="none">
<path d="M350 141 c-39 -16 -92 -27 -288 -57 -53 -8 -36 -19 31 -20 67 -1 203
-26 273 -50 35 -12 67 -13 181 -4 355 25 1201 51 1780 53 222 1 403 5 403 8 0
9 -214 16 -855 29 -680 14 -1179 33 -1430 55 -34 3 -64 -2 -95 -14z"/>
</g>
</svg>
